<svg id="notification_RED" xmlns="http://www.w3.org/2000/svg" width="37.419" height="42.574" viewBox="0 0 37.419 42.574">
  <path id="Path_1" data-name="Path 1" d="M62.6,21.858v-3.98A12.911,12.911,0,0,0,53.45,5.544v-1.8a3.742,3.742,0,1,0-7.484,0v1.8A12.911,12.911,0,0,0,36.82,17.878v3.98a19.585,19.585,0,0,1-5.474,13.617,1.247,1.247,0,0,0,.9,2.111H43.6a6.237,6.237,0,0,0,12.222,0H67.17a1.247,1.247,0,0,0,.9-2.111A19.585,19.585,0,0,1,62.6,21.858ZM48.461,3.742a1.247,1.247,0,1,1,2.495,0V5.05c-.411-.04-.827-.061-1.247-.061s-.837.021-1.247.061Zm1.247,36.338a3.748,3.748,0,0,1-3.527-2.495h7.055a3.748,3.748,0,0,1-3.527,2.495ZM34.935,35.09a22.053,22.053,0,0,0,4.38-13.233v-3.98a10.394,10.394,0,0,1,20.788,0v3.98a22.053,22.053,0,0,0,4.38,13.233Z" transform="translate(-30.999)" fill="#dc3755"/>
  <path id="Path_2" data-name="Path 2" d="M394.607,65.1a1.247,1.247,0,1,0,2.495,0,18.587,18.587,0,0,0-5.48-13.23,1.247,1.247,0,0,0-1.764,1.764A16.109,16.109,0,0,1,394.607,65.1Z" transform="translate(-359.683 -47.224)" fill="#dc3755"/>
  <path id="Path_3" data-name="Path 3" d="M32.247,66.35A1.247,1.247,0,0,0,33.495,65.1a16.109,16.109,0,0,1,4.749-11.466,1.247,1.247,0,1,0-1.764-1.764A18.587,18.587,0,0,0,31,65.1,1.247,1.247,0,0,0,32.247,66.35Z" transform="translate(-31 -47.225)" fill="#dc3755"/>
</svg>
