<svg xmlns="http://www.w3.org/2000/svg" width="41.765" height="40.32" viewBox="0 0 41.765 40.32">
  <g id="shopping-basket_RED" transform="translate(1.375 1.881)">
    <path id="Path_4" data-name="Path 4" d="M3.5,12.528l1.674,12.3h0a5.645,5.645,0,0,0,5.493,5.2H29.5a5.645,5.645,0,0,0,5.493-5.2l1.674-12.3" transform="translate(-0.574 7.034)" fill="none" stroke="#dc3755" stroke-linecap="round" stroke-linejoin="round" stroke-width="2.75"/>
    <path id="Path_5" data-name="Path 5" d="M2,10.5H41.015" transform="translate(-2 5.106)" fill="none" stroke="#dc3755" stroke-linecap="round" stroke-linejoin="round" stroke-width="2.75"/>
    <path id="Path_6" data-name="Path 6" d="M6,14.2,12.828,2.5" transform="translate(1.803 -2.5)" fill="none" stroke="#dc3755" stroke-linecap="round" stroke-linejoin="round" stroke-width="2.75"/>
    <path id="Path_7" data-name="Path 7" d="M21.328,14.2,14.5,2.5" transform="translate(9.885 -2.5)" fill="none" stroke="#dc3755" stroke-linecap="round" stroke-linejoin="round" stroke-width="2.75"/>
    <path id="Path_8" data-name="Path 8" d="M8.28,13.51l.858,9.715" transform="translate(3.971 7.968)" fill="none" stroke="#dc3755" stroke-linecap="round" stroke-linejoin="round" stroke-width="2.75"/>
    <path id="Path_9" data-name="Path 9" d="M12,13.5v9.754" transform="translate(7.508 7.958)" fill="none" stroke="#dc3755" stroke-linecap="round" stroke-linejoin="round" stroke-width="2.75"/>
    <path id="Path_10" data-name="Path 10" d="M16.138,13.51l-.858,9.715" transform="translate(10.626 7.968)" fill="none" stroke="#dc3755" stroke-linecap="round" stroke-linejoin="round" stroke-width="2.75"/>
  </g>
</svg>
