<svg id="user_RED" xmlns="http://www.w3.org/2000/svg" width="35.934" height="43.071" viewBox="0 0 35.934 43.071">
  <path id="Path_11" data-name="Path 11" d="M97.406,20.748a10.038,10.038,0,0,0,7.335-3.039,10.039,10.039,0,0,0,3.039-7.335,10.039,10.039,0,0,0-3.039-7.335,10.371,10.371,0,0,0-14.669,0,10.038,10.038,0,0,0-3.039,7.334,10.038,10.038,0,0,0,3.039,7.335A10.041,10.041,0,0,0,97.406,20.748ZM91.856,4.824a7.847,7.847,0,0,1,11.1,0,7.5,7.5,0,0,1,2.3,5.55,7.5,7.5,0,0,1-2.3,5.55,7.846,7.846,0,0,1-11.1,0,7.5,7.5,0,0,1-2.3-5.55,7.5,7.5,0,0,1,2.3-5.55Zm0,0" transform="translate(-79.71 0)" fill="#dc3755"/>
  <path id="Path_12" data-name="Path 12" d="M35.847,259.631a25.625,25.625,0,0,0-.349-2.722,21.441,21.441,0,0,0-.669-2.736,13.516,13.516,0,0,0-1.125-2.552,9.62,9.62,0,0,0-1.7-2.21,7.478,7.478,0,0,0-2.437-1.531,8.421,8.421,0,0,0-3.111-.563,3.157,3.157,0,0,0-1.686.715c-.505.33-1.1.711-1.756,1.132a10.061,10.061,0,0,1-2.273,1,8.825,8.825,0,0,1-5.559,0,10.034,10.034,0,0,1-2.271-1c-.654-.418-1.245-.8-1.758-1.133a3.154,3.154,0,0,0-1.685-.715,8.411,8.411,0,0,0-3.11.564,7.472,7.472,0,0,0-2.437,1.531,9.622,9.622,0,0,0-1.7,2.21A13.542,13.542,0,0,0,1.1,254.173a21.493,21.493,0,0,0-.669,2.736,25.449,25.449,0,0,0-.349,2.723C.029,260.454,0,261.31,0,262.175a7.152,7.152,0,0,0,2.124,5.411,7.646,7.646,0,0,0,5.474,2H28.336a7.647,7.647,0,0,0,5.473-2,7.149,7.149,0,0,0,2.124-5.411c0-.868-.03-1.724-.087-2.544Zm-3.778,6.126a5.148,5.148,0,0,1-3.733,1.3H7.6a5.148,5.148,0,0,1-3.733-1.3,4.67,4.67,0,0,1-1.34-3.582c0-.807.027-1.6.08-2.369a22.953,22.953,0,0,1,.315-2.451,18.954,18.954,0,0,1,.589-2.412,11.026,11.026,0,0,1,.915-2.075,7.133,7.133,0,0,1,1.246-1.633,4.96,4.96,0,0,1,1.621-1.008,5.808,5.808,0,0,1,1.988-.384c.088.047.246.137.5.3.519.338,1.117.724,1.778,1.146a12.505,12.505,0,0,0,2.853,1.275,11.346,11.346,0,0,0,7.112,0,12.522,12.522,0,0,0,2.854-1.276c.677-.432,1.258-.807,1.777-1.146.255-.166.412-.256.5-.3a5.811,5.811,0,0,1,1.988.384,4.968,4.968,0,0,1,1.621,1.008,7.112,7.112,0,0,1,1.246,1.634,10.989,10.989,0,0,1,.916,2.074,18.912,18.912,0,0,1,.589,2.412,23.141,23.141,0,0,1,.315,2.452h0c.054.762.081,1.559.081,2.368a4.67,4.67,0,0,1-1.341,3.582Zm0,0" transform="translate(0 -226.511)" fill="#dc3755"/>
</svg>
